<svg width="519" height="408" viewBox="0 0 519 408" fill="none" xmlns="http://www.w3.org/2000/svg">
<g clip-path="url(#clip0_55152_1384)">
<path opacity="0.1" d="M172.546 407.771C197.821 407.771 218.31 404.118 218.31 399.613C218.31 395.108 197.821 391.456 172.546 391.456C147.271 391.456 126.782 395.108 126.782 399.613C126.782 404.118 147.271 407.771 172.546 407.771Z" fill="#5A98F2"/>
<path opacity="0.1" d="M421.314 408C452.853 408 478.421 404.348 478.421 399.843C478.421 395.337 452.853 391.685 421.314 391.685C389.775 391.685 364.208 395.337 364.208 399.843C364.208 404.348 389.775 408 421.314 408Z" fill="#5A98F2"/>
<path opacity="0.1" d="M6.5001 176.285H54.1665V248.389H9.98972C9.8723 249.129 9.75958 249.875 9.63747 250.62H54.1665V308.77C54.0867 308.744 54.0162 308.713 53.9411 308.682C52.6824 308.129 51.4331 307.546 50.1838 306.92L49.3853 306.519C48.1329 305.862 46.8804 305.167 45.628 304.434C45.1912 304.178 44.7544 303.912 44.3223 303.641C37.3693 299.319 31.0529 293.841 25.592 287.399C25.4323 287.227 25.2821 287.045 25.1224 286.878C24.3615 285.961 23.6147 285.033 22.8915 284.084L22.093 283.042C21.2382 281.879 20.4116 280.686 19.6085 279.476C19.4911 279.299 19.3783 279.122 19.2562 278.955C15.9899 273.929 13.2779 268.487 11.178 262.744C11.1122 262.572 11.0559 262.385 10.9948 262.223C10.3498 260.381 9.77837 258.522 9.28052 256.646C9.06448 255.859 8.85782 255.082 8.67935 254.264C8.6136 254.024 8.55724 253.789 8.50557 253.555C5.83787 241.999 5.52319 229.995 5.52319 218.074C5.52319 216.682 5.52319 215.285 5.52319 213.904C5.52319 209.082 5.57486 204.229 5.65 199.382C5.65 198.126 5.69697 196.875 5.72045 195.613C5.78621 192.413 5.88014 189.212 6.00225 186.012C6.03043 185.12 6.06801 184.234 6.11028 183.348C6.11028 182.837 6.13376 182.327 6.18073 181.816C6.29345 179.96 6.38738 178.12 6.5001 176.285Z" fill="#5A98F2"/>
<path opacity="0.1" d="M54.1666 96.0031H28.0203C32.2705 88.62 36.9144 81.5254 41.9271 74.7571C45.8112 69.4612 49.9114 64.3009 54.1666 59.3282V96.0031Z" fill="white"/>
<path opacity="0.1" d="M54.1665 98.234V174.054H6.65039C6.65039 173.836 6.68327 173.611 6.69736 173.392C6.73963 172.793 6.7819 172.194 6.82886 171.599C6.88053 170.901 6.93689 170.197 6.99794 169.514C7.059 168.832 7.12475 167.998 7.1952 167.242C7.26565 166.486 7.33141 165.72 7.41125 164.964C7.49109 164.208 7.56154 163.452 7.64608 162.702C7.73062 161.951 7.80577 161.19 7.89501 160.439C7.96546 159.814 8.0406 159.194 8.11575 158.568C8.22377 157.687 8.33649 156.801 8.4586 155.925C8.4586 155.795 8.49148 155.66 8.51027 155.535C9.3675 149.124 10.5355 142.77 12.0093 136.499C13.5519 129.92 15.5219 123.475 17.9036 117.213C20.4349 110.661 23.3988 104.327 26.7709 98.2601L54.1665 98.234Z" fill="white"/>
<path opacity="0.1" d="M54.1665 136.478V174.054H6.65039C6.65039 173.835 6.68327 173.611 6.69736 173.392C6.73963 172.793 6.7819 172.194 6.82886 171.599C6.88053 170.901 6.93689 170.197 6.99794 169.514C7.059 168.832 7.12475 167.998 7.1952 167.242C7.26565 166.486 7.33141 165.72 7.41125 164.964C7.49109 164.208 7.56154 163.452 7.64608 162.702C7.73062 161.951 7.80577 161.19 7.89501 160.439C7.96546 159.814 8.0406 159.194 8.11575 158.568C8.22377 157.687 8.33649 156.801 8.4586 155.925C8.4586 155.795 8.49148 155.66 8.51027 155.535C9.3675 149.124 10.5355 142.77 12.0093 136.499L54.1665 136.478Z" fill="#5A98F2"/>
<path opacity="0.1" d="M6.5001 176.285H54.1665V248.389H9.98972C9.8723 249.129 9.75958 249.875 9.63747 250.62H54.1665V308.77C54.0867 308.744 54.0162 308.713 53.9411 308.682C52.6824 308.129 51.4331 307.546 50.1838 306.92L49.3853 306.519C48.1329 305.862 46.8804 305.167 45.628 304.434C45.1912 304.178 44.7544 303.912 44.3223 303.641C37.3693 299.319 31.0529 293.841 25.592 287.399C25.4323 287.227 25.2821 287.045 25.1224 286.878C24.3615 285.961 23.6147 285.033 22.8915 284.084L22.093 283.042C21.2382 281.879 20.4116 280.686 19.6085 279.476C19.4911 279.299 19.3783 279.122 19.2562 278.955C15.9899 273.929 13.2779 268.487 11.178 262.744C11.1122 262.572 11.0559 262.385 10.9948 262.223C10.3498 260.381 9.77837 258.522 9.28052 256.646C9.06448 255.859 8.85782 255.082 8.67935 254.264C8.6136 254.024 8.55724 253.789 8.50557 253.555C5.83787 241.999 5.52319 229.995 5.52319 218.074C5.52319 216.682 5.52319 215.285 5.52319 213.904C5.52319 209.082 5.57486 204.229 5.65 199.382C5.65 198.126 5.69697 196.875 5.72045 195.613C5.78621 192.413 5.88014 189.212 6.00225 186.012C6.03043 185.12 6.06801 184.234 6.11028 183.348C6.11028 182.837 6.13376 182.327 6.18073 181.816C6.29345 179.96 6.38738 178.12 6.5001 176.285Z" fill="white"/>
<path opacity="0.1" d="M101.387 109.086V174.054H65.5466V109.086H70.6566V87.0898H91.6319V109.086H101.387Z" fill="#5A98F2"/>
<path opacity="0.1" d="M101.387 176.28H65.5513V248.384H101.387V176.28Z" fill="#5A98F2"/>
<path opacity="0.1" d="M65.5466 250.62H101.387V310.564C97.1592 311.912 92.851 312.927 88.4945 313.602L87.4237 313.748C86.8977 313.816 86.3763 313.873 85.8597 313.931C85.3431 313.988 84.8076 314.03 84.2863 314.066H84.1219C83.8965 314.066 83.6523 314.098 83.4315 314.103H83.192C82.9102 314.103 82.6284 314.134 82.3466 314.144C81.9474 314.171 81.5482 314.176 81.1395 314.181C80.9658 314.181 80.8014 314.181 80.6276 314.181C80.2237 314.181 79.8245 314.181 79.4206 314.181H78.5329C78.2934 314.181 78.0632 314.181 77.8143 314.181L76.9079 314.144C76.4382 314.144 75.9309 314.087 75.4425 314.051L74.5407 313.978L73.4182 313.863C72.6292 313.785 71.8449 313.686 71.0699 313.566L70.1306 313.42L69.6609 313.347C68.8766 313.211 68.1016 313.065 67.3126 312.899C66.7349 312.789 66.1619 312.654 65.5795 312.523L65.5466 250.62Z" fill="#5A98F2"/>
<path opacity="0.1" d="M325.422 101.414H295.871V174.049H325.422V101.414Z" fill="#5A98F2"/>
<path opacity="0.1" d="M325.427 176.28V248.389H178.746V217.287H256.875V235.634H295.871V176.28H325.427Z" fill="#5A98F2"/>
<path opacity="0.1" d="M325.892 327.931H325.422V375.234C320.131 374.738 314.855 374.062 309.595 373.207C285.912 369.359 262.826 361.882 240.995 350.991C234.692 347.843 228.518 344.406 222.472 340.681C212.372 334.471 202.696 327.449 193.521 319.67C191.217 317.71 188.942 315.705 186.697 313.654C185.142 312.231 183.597 310.772 182.033 309.354C180.948 308.379 179.854 307.42 178.746 306.503V250.62H295.481C295.401 250.287 295.321 249.953 295.237 249.625C295.326 249.953 295.411 250.287 295.491 250.62H325.422V327.9C325.582 327.905 325.737 327.921 325.892 327.931Z" fill="#5A98F2"/>
<path opacity="0.1" d="M402.495 96.0031H383.238V89.3624H391.871V69.5811C392.619 69.8834 393.364 70.1945 394.106 70.5142V89.3624H402.495V96.0031Z" fill="#5A98F2"/>
<path opacity="0.1" d="M448.888 174.054H354.354C354.354 174.054 354.354 174.054 354.387 174.081L354.344 174.054H336.807V101.419H341.776V155.107H364.485V123.311H383.243V98.234H402.499V123.332H421.258V155.128H448.888V174.054Z" fill="#5A98F2"/>
<path opacity="0.1" d="M336.807 176.28V248.389H448.888V176.28H336.807ZM479.313 333.269L479.468 276.193H448.888V250.652H336.807V376.011C345.996 376.44 355.199 376.318 364.377 375.646H364.536C368.92 375.34 373.283 374.896 377.626 374.312H377.724C400.893 371.319 423.548 364.61 444.981 354.395" fill="#5A98F2"/>
<path opacity="0.1" d="M492.835 250.62H518.981C518.751 265.262 516.102 279.643 510.306 292.925C505.483 303.959 498.781 313.608 490.862 322.036V276.167H492.835V250.62Z" fill="#5A98F2"/>
<path opacity="0.1" d="M518.995 248.389H492.835V188.128H506.991C514.318 207.127 518.972 227.977 518.995 248.389Z" fill="#5A98F2"/>
<path opacity="0.1" d="M325.427 121.607H309.594V144.38H325.427V121.607Z" fill="#5A98F2"/>
<path opacity="0.1" d="M325.427 168.811H309.594V174.054H325.427V168.811Z" fill="#5A98F2"/>
<path opacity="0.1" d="M325.427 176.28H309.594V191.579H325.427V176.28Z" fill="#5A98F2"/>
<path opacity="0.1" d="M325.427 216.015H309.594V238.788H325.427V216.015Z" fill="#5A98F2"/>
<path opacity="0.1" d="M325.427 263.219H309.594V285.992H325.427V263.219Z" fill="#5A98F2"/>
<path opacity="0.1" d="M325.422 327.9C325.582 327.9 325.737 327.9 325.892 327.931H325.422V333.222H309.594V310.423H325.422V327.9Z" fill="#5A98F2"/>
<path opacity="0.1" d="M325.422 357.616V375.208C320.131 374.712 314.855 374.036 309.594 373.181V357.616H325.422Z" fill="#5A98F2"/>
<path opacity="0.1" d="M246.598 246.716H178.746V248.389H246.598V246.716Z" fill="#5A98F2"/>
<path opacity="0.1" d="M246.598 250.615H178.746V257.026H246.598V250.615Z" fill="#5A98F2"/>
<path opacity="0.1" d="M246.598 278.043H178.746V288.353H246.598V278.043Z" fill="#5A98F2"/>
<path opacity="0.1" d="M246.594 309.37V319.68H193.521C191.217 317.727 188.94 315.722 186.692 313.665C185.138 312.242 183.597 310.782 182.029 309.37H246.594Z" fill="#5A98F2"/>
<path opacity="0.1" d="M246.594 340.692V350.991H240.99C234.694 347.84 228.521 344.401 222.471 340.676L246.594 340.692Z" fill="#5A98F2"/>
<path opacity="0.1" d="M377.738 183.27H364.381V198.094H377.738V183.27Z" fill="#5A98F2"/>
<path opacity="0.1" d="M88.5275 114.2H75.1702V129.024H88.5275V114.2Z" fill="#5A98F2"/>
<path opacity="0.1" d="M88.5275 148.633H75.1702V163.457H88.5275V148.633Z" fill="#5A98F2"/>
<path opacity="0.1" d="M88.5275 183.067H75.1702V197.891H88.5275V183.067Z" fill="#5A98F2"/>
<path opacity="0.1" d="M88.5275 217.495H75.1702V232.319H88.5275V217.495Z" fill="#5A98F2"/>
<path opacity="0.1" d="M88.5275 251.929H75.1702V266.753H88.5275V251.929Z" fill="#5A98F2"/>
<path opacity="0.1" d="M88.5275 286.362H75.1702V301.186H88.5275V286.362Z" fill="#5A98F2"/>
<path opacity="0.1" d="M428.73 183.27H415.373V198.094H428.73V183.27Z" fill="#5A98F2"/>
<path opacity="0.1" d="M377.738 219.835H364.381V234.66H377.738V219.835Z" fill="#5A98F2"/>
<path opacity="0.1" d="M428.73 219.835H415.373V234.66H428.73V219.835Z" fill="#5A98F2"/>
<path opacity="0.1" d="M377.738 256.396H364.381V271.22H377.738V256.396Z" fill="#5A98F2"/>
<path opacity="0.1" d="M428.73 256.396H415.373V271.22H428.73V256.396Z" fill="#5A98F2"/>
<path opacity="0.1" d="M377.738 292.961H364.381V307.785H377.738V292.961Z" fill="#5A98F2"/>
<path opacity="0.1" d="M428.73 292.961H415.373V307.785H428.73V292.961Z" fill="#5A98F2"/>
<path opacity="0.1" d="M377.738 329.526H364.381V344.351H377.738V329.526Z" fill="#5A98F2"/>
<path opacity="0.1" d="M428.73 329.526H415.373V344.351H428.73V329.526Z" fill="#5A98F2"/>
<path opacity="0.1" d="M364.381 375.646V366.087H377.734V374.286L364.381 375.646Z" fill="#5A98F2"/>
<path opacity="0.1" d="M8.4541 155.524V164.005H54.1667V155.524H8.4541ZM13.0099 163.473H9.28072V156.045H13.038L13.0099 163.473ZM17.5609 163.473H13.8036V156.045H17.5609V163.473ZM22.1026 163.473H18.3453V156.045H22.1026V163.473ZM26.6537 163.473H22.901V156.045H26.6584L26.6537 163.473ZM31.2 163.473H27.4427V156.045H31.2V163.473ZM35.7511 163.473H31.9938V156.045H35.7511V163.473ZM40.3022 163.473H36.5448V156.045H40.3022V163.473ZM44.8485 163.473H41.0912V156.045H44.8485V163.473ZM49.3949 163.473H45.6376V156.045H49.3949V163.473ZM53.9413 163.473H50.1839V156.045H53.9413V163.473Z" fill="#5A98F2"/>
<path opacity="0.1" d="M8.4541 180.2V188.681H54.1667V180.2H8.4541ZM13.0099 188.144H9.28072V180.737H13.038L13.0099 188.144ZM17.5609 188.144H13.8036V180.737H17.5609V188.144ZM22.1026 188.144H18.3453V180.737H22.1026V188.144ZM26.6537 188.144H22.901V180.737H26.6584L26.6537 188.144ZM31.2 188.144H27.4427V180.737H31.2V188.144ZM35.7511 188.144H31.9938V180.737H35.7511V188.144ZM40.3022 188.144H36.5448V180.737H40.3022V188.144ZM44.8485 188.144H41.0912V180.737H44.8485V188.144ZM49.3949 188.144H45.6376V180.737H49.3949V188.144ZM53.9413 188.144H50.1839V180.737H53.9413V188.144Z" fill="#5A98F2"/>
<path opacity="0.1" d="M8.4541 204.886V213.382H54.1667V204.886H8.4541ZM13.0099 212.83H9.28072V205.418H13.038L13.0099 212.83ZM17.5609 212.83H13.8036V205.418H17.5609V212.83ZM22.1026 212.83H18.3453V205.418H22.1026V212.83ZM26.6537 212.83H22.901V205.418H26.6584L26.6537 212.83ZM31.2 212.83H27.4427V205.418H31.2V212.83ZM35.7511 212.83H31.9938V205.418H35.7511V212.83ZM40.3022 212.83H36.5448V205.418H40.3022V212.83ZM44.8485 212.83H41.0912V205.418H44.8485V212.83ZM49.3949 212.83H45.6376V205.418H49.3949V212.83ZM53.9413 212.83H50.1839V205.418H53.9413V212.83Z" fill="#5A98F2"/>
<path opacity="0.1" d="M8.4541 229.572V238.043H54.1667V229.572H8.4541ZM13.0099 237.516H9.28072V230.099H13.038L13.0099 237.516ZM17.5609 237.516H13.8036V230.099H17.5609V237.516ZM22.1026 237.516H18.3453V230.099H22.1026V237.516ZM26.6537 237.516H22.901V230.099H26.6584L26.6537 237.516ZM31.2 237.516H27.4427V230.099H31.2V237.516ZM35.7511 237.516H31.9938V230.099H35.7511V237.516ZM40.3022 237.516H36.5448V230.099H40.3022V237.516ZM44.8485 237.516H41.0912V230.099H44.8485V237.516ZM49.3949 237.516H45.6376V230.099H49.3949V237.516ZM53.9413 237.516H50.1839V230.099H53.9413V237.516Z" fill="#5A98F2"/>
<path opacity="0.1" d="M8.65137 254.253C8.83454 255.051 9.04119 255.848 9.25723 256.635V254.785H13.0146V262.197H11.0044C11.0654 262.369 11.1265 262.557 11.1876 262.718H54.1667V254.253H8.65137ZM17.575 262.197H13.8177V254.785H17.575V262.197ZM22.1167 262.197H18.3594V254.785H22.1167V262.197ZM26.6678 262.197H22.901V254.785H26.6584L26.6678 262.197ZM31.2141 262.197H27.4568V254.785H31.2141V262.197ZM35.7652 262.197H32.0079V254.785H35.7652V262.197ZM40.3163 262.197H36.5589V254.785H40.3163V262.197ZM44.8626 262.197H41.1053V254.785H44.8626V262.197ZM49.409 262.197H45.6517V254.785H49.409V262.197ZM53.9554 262.197H50.198V254.785H53.9554V262.197Z" fill="#5A98F2"/>
<path opacity="0.1" d="M19.2656 278.94C19.383 279.106 19.4958 279.294 19.6179 279.461H22.1024V283.021C22.3701 283.375 22.6331 283.73 22.9055 284.063V279.44H26.6629V286.878H25.1411C25.2914 287.05 25.437 287.233 25.6108 287.399H54.1806V278.94H19.2656ZM31.1998 286.878H27.4425V279.471H31.1998V286.878ZM35.7509 286.878H31.9936V279.471H35.7509V286.878ZM40.302 286.878H36.5446V279.471H40.302V286.878ZM44.8483 286.878H41.091V279.471H44.8483V286.878ZM49.3947 286.878H45.6374V279.471H49.3947V286.878ZM53.9411 286.878H50.1838V279.471H53.9411V286.878Z" fill="#5A98F2"/>
<path opacity="0.1" d="M44.3413 303.621C44.7687 303.892 45.2055 304.142 45.647 304.413V304.152H49.4043V306.498L50.2027 306.91V304.152H53.9601V308.661C54.0321 308.701 54.1077 308.732 54.1855 308.755V303.621H44.3413Z" fill="#5A98F2"/>
<path opacity="0.1" d="M295.237 249.619C295.326 249.953 295.401 250.287 295.486 250.615C295.411 250.287 295.331 249.953 295.237 249.619ZM70.6753 95.9874V98.2131H91.6553V95.9874H70.6753ZM295.237 249.619C295.326 249.953 295.401 250.287 295.486 250.615C295.411 250.287 295.331 249.953 295.237 249.619ZM295.237 249.619C295.326 249.953 295.401 250.287 295.486 250.615C295.411 250.287 295.331 249.953 295.237 249.619Z" fill="#5A98F2"/>
<path d="M216.798 197.901C216.798 197.901 214.948 197.615 214.948 194.623C214.948 191.631 213.623 186.043 213.623 186.043C213.623 186.017 212.477 176.311 210.894 174.769C209.312 173.226 207.278 164.166 207.278 164.166C207.278 164.166 206.93 159.251 206.221 158.193C205.512 157.135 204.554 154.544 203.14 150.849C201.726 147.153 195.832 144.594 195.832 144.594C195.832 144.594 185.175 137.734 182.155 135.498C181.881 135.314 181.624 135.099 181.39 134.857C180.864 134.091 178.572 134.075 178.572 134.075C178.332 132.396 178.102 130.468 178.027 128.722C178.027 128.534 178.027 128.346 178.004 128.159C181.371 125.95 183.907 122.466 185.147 118.349C185.204 118.151 185.251 117.942 185.302 117.744C185.504 117.67 185.69 117.551 185.847 117.393C186.005 117.235 186.131 117.042 186.218 116.827C186.49 116.154 186.495 115.367 186.833 114.742C187.228 114.002 187.979 113.606 188.571 113.048C190.065 111.64 190.45 109.269 190.379 107.111C190.332 105.365 190.079 103.603 190.177 101.867L190.205 101.429C190.234 101.169 190.267 100.908 190.309 100.658C190.539 99.3651 191.042 98.1454 191.323 96.8631C191.605 95.5809 191.633 94.137 190.976 93.032C190.013 91.4109 188.007 91.0877 186.246 90.9209C184.25 90.7333 182.465 90.9783 181.188 89.1383C180.59 88.1766 179.917 87.2748 179.178 86.4434C178.915 86.1724 176.36 84.4418 176.36 84.3272C173.866 83.0454 171.04 82.8048 168.399 83.6495C167.074 84.077 165.825 84.7754 164.482 85.1247C161.584 85.8857 158.249 85.0621 155.788 86.9021C154.417 87.9446 153.595 89.6022 152.825 91.218C152.199 92.5489 151.563 93.8781 150.918 95.2056C149.88 97.3896 148.823 99.6101 148.386 102.029C148.295 102.555 148.238 103.088 148.217 103.624V103.65C148.217 103.843 148.217 104.035 148.217 104.228V104.473C148.217 104.656 148.217 104.833 148.246 104.995C148.274 105.156 148.269 105.208 148.283 105.318C148.297 105.427 148.321 105.672 148.349 105.839C148.377 106.006 148.433 106.298 148.49 106.527C148.513 106.626 148.546 106.72 148.574 106.814C148.621 106.991 148.678 107.163 148.739 107.335C148.772 107.424 148.804 107.517 148.842 107.606C148.912 107.788 148.997 107.966 149.082 108.127C149.119 108.2 149.147 108.268 149.185 108.336C149.316 108.578 149.46 108.811 149.617 109.034C150.622 110.426 152.101 111.312 153.196 112.615C153.196 112.667 153.196 112.719 153.196 112.766C153.196 112.912 153.196 113.053 153.196 113.199C153.254 116.105 153.951 118.952 155.226 121.491C156.501 124.03 158.316 126.185 160.513 127.768C160.513 127.966 160.537 128.169 160.546 128.367C160.638 129.914 160.62 131.467 160.494 133.012C160.303 132.762 160.064 132.562 159.794 132.429C159.524 132.295 159.231 132.231 158.935 132.24C158.733 132.229 158.531 132.248 158.334 132.297L158.292 132.261V132.308C157.258 132.589 155.986 133.783 154.769 137.176C154.769 137.176 151.068 141.805 148.25 141.612C145.432 141.419 138.298 146.428 138.298 146.428C138.298 146.428 131.338 151.443 129.844 156.551C129.009 159.448 128.008 162.282 126.848 165.037L118.243 184.714L116.656 200.325C116.656 200.325 117.534 207.268 117.36 208.326C117.186 209.384 120.972 218.928 120.972 218.928C120.972 218.928 133.479 243.318 138.589 244.569L138.956 244.282C139.174 244.409 139.406 244.505 139.646 244.569L140.698 243.745C140.761 244.663 140.734 245.586 140.618 246.497C139.914 248.905 140.881 264.621 142.112 267.701C143.342 270.782 142.905 311.173 142.905 311.173L142.732 314.739C142.732 314.739 142.732 314.853 142.774 315.051L142.732 315.896L142.858 315.969C142.99 317.1 142.947 318.247 142.732 319.362C142.29 320.926 142.112 325.346 142.112 325.346C142.112 325.346 138.594 350.303 140.261 355.318C141.929 360.332 143.347 365.826 143.347 365.826C143.347 365.826 145.108 372.081 143.431 373.15C141.755 374.218 136.988 376.011 137.969 378.617C138.862 381.026 142.248 387.479 142.75 388.422L142.708 388.917L142.018 397.221C142.13 398.317 142.397 399.387 142.811 400.39C143.568 402.199 145.038 404.075 147.832 403.872C148.302 403.835 148.847 403.773 149.373 403.695C154.487 402.934 160.786 400.4 160.786 400.4C160.459 400.17 160.159 399.895 159.893 399.582C159.642 399.312 159.443 398.987 159.308 398.629C159.173 398.27 159.105 397.885 159.109 397.497C159.184 395.985 156.634 388.782 156 387.009C155.901 386.754 155.849 386.608 155.849 386.608C155.849 386.608 161.664 379.863 160.696 373.884C160.696 373.884 154.262 369.715 156.38 367.426C158.498 365.138 162.284 358.565 162.284 358.565C162.284 358.565 162.458 333.988 162.284 330.319C162.103 327.772 162.211 325.21 162.608 322.693C162.678 322.312 162.763 321.942 162.852 321.577C165.782 322.063 168.739 322.312 171.701 322.323C172.781 322.323 173.88 322.323 174.988 322.25C174.988 322.597 175.002 322.973 175.031 323.376C175.275 329.464 175.73 340.139 176.101 344.106C176.627 349.792 179.535 365.117 179.535 365.117C179.535 365.117 173.988 369.068 180.502 378.805C180.502 378.805 180.502 382.334 180.07 382.845C179.609 384.515 179.237 386.213 178.957 387.932C178.685 389.767 178.572 391.622 179.013 392.587C180.07 394.891 186.411 394.703 186.411 394.703L186.566 394.672C187.763 394.534 188.972 394.662 190.124 395.048C191.277 395.434 192.348 396.069 193.277 396.918C195.687 399.066 204.831 398.122 209.781 397.44C211.721 397.169 213.017 396.918 213.017 396.918C213.08 396.675 213.102 396.42 213.083 396.168C213.031 394.818 212.078 391.857 205.615 389.214C205.615 389.214 199.538 384.679 199.622 380.728H199.495H198.791C199.303 380.697 199.632 380.728 199.632 380.728C199.632 380.728 197.25 371.085 198.223 370.304C199.195 369.522 196.283 358.836 196.283 358.836C196.283 358.836 194.616 340.905 194.526 339.649C194.53 338.571 194.677 337.5 194.963 336.469L194.526 326.639C194.526 326.639 194.442 323.371 194.526 322.307C194.512 321.384 194.445 320.463 194.324 319.55C194.282 319.185 194.24 318.804 194.193 318.429C196.471 317.788 197.95 317.194 197.95 317.194L197.687 282.974C199.622 278.804 199.979 269.656 199.97 263.167C199.97 258.997 199.801 255.911 199.801 255.911L202.445 251.121C202.445 251.121 203.056 245.387 202.088 244.131C201.661 243.563 201.853 242.974 202.205 242.489C202.388 242.328 202.581 242.181 202.783 242.051C202.783 242.051 202.755 242.004 202.722 241.936C202.907 241.765 203.103 241.61 203.309 241.472C203.309 241.472 202.37 239.856 203.211 239.174C204 239.768 204.704 240.216 205.24 240.581C205.202 240.962 205.164 241.18 205.164 241.18L205.39 240.659C205.906 240.982 206.221 241.18 206.221 241.18C206.221 241.18 210.364 232.022 210.274 230.672C210.185 229.322 213.092 223.635 213.092 223.635C213.092 223.635 213.445 220.649 215.032 219.398C216.62 218.147 216.263 209.082 216.263 209.082C216.263 209.082 216.704 204.36 217.761 202.431C218.818 200.502 216.798 197.901 216.798 197.901ZM137.537 193.883L137.617 196.067C137.147 195.227 136.809 194.623 136.809 194.623L137.537 193.883Z" fill="url(#paint0_linear_55152_1384)"/>
<path d="M206.446 237.224L205.432 242.02C205.432 242.02 197.307 237.417 195.841 231.569C194.376 225.72 198.293 223.5 198.293 223.5L205.864 227.06L206.446 237.224Z" fill="white"/>
<path opacity="0.1" d="M206.446 237.224L205.432 242.02C205.432 242.02 197.307 237.417 195.841 231.569C194.376 225.72 198.293 223.5 198.293 223.5L205.864 227.06L206.446 237.224Z" fill="black"/>
<path d="M160.847 400.431C160.847 400.431 153.332 403.496 148.166 403.882C145.423 404.085 143.981 402.219 143.239 400.421C142.833 399.421 142.572 398.357 142.464 397.268L143.135 389.006L143.492 384.606L154.469 381.443L156.023 386.718L156.169 387.119C156.793 388.881 159.297 396.048 159.222 397.544C159.218 397.927 159.285 398.307 159.417 398.66C159.55 399.014 159.745 399.335 159.992 399.603C160.244 399.918 160.531 400.197 160.847 400.431Z" fill="white"/>
<path d="M212.177 396.23C212.195 396.481 212.173 396.734 212.111 396.976C212.111 396.976 196.039 399.952 192.751 396.976C191.824 396.106 190.744 395.461 189.579 395.083C188.414 394.704 187.191 394.599 185.988 394.776C185.988 394.776 179.77 394.964 178.732 392.691C178.3 391.737 178.412 389.887 178.68 388.062C178.953 386.353 179.317 384.663 179.77 383.001L180.019 382.782L181.498 381.463L198.819 380.895H198.951C198.866 384.825 204.831 389.334 204.831 389.334C211.167 391.94 212.101 394.885 212.177 396.23Z" fill="white"/>
<path opacity="0.1" d="M212.177 396.23C212.193 396.481 212.169 396.734 212.106 396.976C212.106 396.976 196.039 399.952 192.751 396.976C191.825 396.107 190.745 395.462 189.581 395.084C188.417 394.705 187.195 394.6 185.993 394.776C185.993 394.776 179.77 394.964 178.736 392.691C178.304 391.732 178.412 389.887 178.68 388.062C181.075 388.328 184.856 388.99 186.34 390.57C188.585 392.972 192.389 395.37 194.724 395.558C196.551 395.688 207.48 396.074 212.177 396.23Z" fill="black"/>
<path opacity="0.1" d="M160.846 400.431C160.846 400.431 153.332 403.496 148.166 403.882C145.423 404.085 143.981 402.219 143.243 400.416C145.155 401.13 147.809 401.881 149.203 401.193C150.857 400.379 156.718 399.853 160.006 399.629C160.256 399.933 160.538 400.202 160.846 400.431Z" fill="black"/>
<path d="M171.996 153.439C165.797 150.765 157.822 141.93 159.813 137.802C160.256 136.76 160.518 135.636 160.588 134.487C160.716 132.927 160.735 131.358 160.645 129.795C160.505 127.236 160.227 124.687 159.813 122.164C159.813 122.164 179.168 122.649 178.041 125.813C177.712 126.741 177.661 128.352 177.75 130.155C177.839 131.959 178.074 133.997 178.318 135.722C178.656 138.088 178.994 139.892 178.994 139.892C178.994 139.892 177.811 141.732 177.116 141.831C176.421 141.93 180.892 157.249 171.996 153.439Z" fill="#CF6F80"/>
<path opacity="0.1" d="M156.155 387.119L156.009 387.296C150.223 379.53 143.225 389.209 143.225 389.209L143.121 389.006L143.478 384.606L154.454 381.443L156.009 386.718L156.155 387.119Z" fill="black"/>
<path opacity="0.1" d="M198.955 381.443C198.955 381.443 194.728 381.343 192.474 383.554C190.22 385.764 179.323 384.033 179.793 383.554C179.932 383.316 180.016 383.044 180.037 382.761L181.517 381.443L198.838 380.874C198.904 381.224 198.955 381.443 198.955 381.443Z" fill="black"/>
<path d="M163.355 320.452C163.04 321.315 162.801 322.211 162.641 323.126C162.249 325.631 162.14 328.18 162.317 330.715C162.49 334.364 162.317 358.815 162.317 358.815C162.317 358.815 158.601 365.336 156.53 367.635C154.459 369.933 160.757 374.062 160.757 374.062C161.697 380.004 156.004 386.718 156.004 386.718C150.218 378.951 143.22 388.636 143.22 388.636C143.22 388.636 139.416 381.338 138.467 378.732C137.518 376.126 142.182 374.322 143.821 373.264C145.46 372.206 143.741 365.967 143.741 365.967C143.741 365.967 142.356 360.499 140.712 355.511C139.068 350.522 142.525 325.69 142.525 325.69C142.525 325.69 142.703 321.28 143.131 319.743C143.346 318.633 143.389 317.491 143.258 316.365C143.229 315.984 143.196 315.667 143.173 315.453C143.149 315.239 143.131 315.14 143.131 315.14L143.196 315.015L145.545 310.157C145.545 310.157 164.482 317.392 163.355 320.452Z" fill="#5A98F2"/>
<path d="M198.955 380.869C198.955 380.869 194.728 380.77 192.474 382.954C190.219 385.138 179.323 383.434 179.793 382.954C180.263 382.475 180.225 378.925 180.225 378.925C173.833 369.24 179.286 365.31 179.286 365.31C179.286 365.31 176.43 350.064 175.913 344.408C175.552 340.457 175.106 329.839 174.866 323.777C174.763 321.171 174.702 319.378 174.702 319.378L179.924 318.21L180.596 318.059L193.192 315.255C193.192 315.255 193.54 317.861 193.775 319.993C193.892 320.903 193.958 321.821 193.972 322.74C193.888 323.782 193.972 327.045 193.972 327.045L194.399 336.829C194.12 337.855 193.976 338.921 193.972 339.993C194.057 341.239 195.696 359.076 195.696 359.076C195.696 359.076 198.547 369.72 197.574 370.486C196.602 371.252 198.955 380.869 198.955 380.869Z" fill="#5A98F2"/>
<path opacity="0.1" d="M178.041 125.813C177.712 126.741 177.661 128.352 177.75 130.155C175.157 131.888 172.177 132.774 169.151 132.711C166.125 132.648 163.177 131.639 160.645 129.801C160.505 127.239 160.228 124.689 159.813 122.164C159.813 122.164 179.168 122.639 178.041 125.813Z" fill="black"/>
<path d="M185.523 114.294C185.527 116.172 185.26 118.039 184.734 119.824C183.557 123.824 181.144 127.233 177.922 129.45C174.699 131.666 170.874 132.547 167.123 131.936C163.372 131.325 159.936 129.263 157.423 126.112C154.909 122.962 153.48 118.927 153.388 114.721C153.388 114.575 153.388 114.44 153.388 114.294C153.352 111.926 153.741 109.574 154.532 107.375C155.323 105.175 156.501 103.173 157.997 101.484C159.492 99.7955 161.276 98.4543 163.244 97.5387C165.212 96.6232 167.324 96.1516 169.458 96.1516C171.592 96.1516 173.704 96.6232 175.672 97.5387C177.64 98.4543 179.423 99.7955 180.919 101.484C182.415 103.173 183.593 105.175 184.384 107.375C185.175 109.574 185.564 111.926 185.528 114.294H185.523Z" fill="#CF6F80"/>
<path opacity="0.1" d="M171.996 153.439C165.797 150.765 157.822 141.93 159.813 137.802C160.256 136.76 160.518 135.636 160.588 134.487L169.075 142.227L174.326 147.007L178.318 135.727C178.656 138.094 178.994 139.897 178.994 139.897C178.994 139.897 177.811 141.737 177.116 141.836C176.421 141.935 180.892 157.249 171.996 153.439Z" fill="black"/>
<path d="M193.944 187.649L186.857 319.784L177.614 320.457L153.679 243.839L157.606 152.876L158.432 133.658L169.075 143.358L174.331 148.138L178.44 136.53L186.082 143.921L193.944 187.649Z" fill="#5A98F2"/>
<path opacity="0.1" d="M163.355 320.452C163.04 321.315 162.801 322.211 162.641 323.126C155.915 321.973 149.383 319.708 143.262 316.407L143.135 316.334L143.178 315.495L143.201 315.057L145.55 310.199C145.55 310.199 164.482 317.392 163.355 320.452Z" fill="black"/>
<path opacity="0.1" d="M180.032 323.146C178.313 323.471 176.579 323.69 174.838 323.803C174.735 321.197 174.674 319.404 174.674 319.404L179.896 318.236L180.032 323.146Z" fill="black"/>
<path opacity="0.1" d="M193.747 320.019C190.407 320.983 185.25 322.067 180.634 321.39L180.568 318.085L193.164 315.281C193.164 315.281 193.512 317.861 193.747 320.019Z" fill="black"/>
<path opacity="0.1" d="M180.549 321.994C161.293 325.643 143.657 315.182 143.657 315.182L143.826 311.637C143.826 311.637 144.263 271.454 143.051 268.374C141.839 265.293 140.895 249.672 141.581 247.274C142.267 244.876 139.077 208.921 139.077 208.921L138.561 194.326L119.652 185.824L128.106 166.267C129.248 163.525 130.23 160.704 131.046 157.823C132.516 152.746 139.341 147.758 139.341 147.758C139.341 147.758 146.339 142.774 149.105 142.962C151.871 143.15 155.497 138.552 155.497 138.552C158.174 130.979 160.598 134.408 160.598 134.408C160.598 134.768 160.598 134.408 160.466 135.529C159.527 143.843 175.655 170.114 175.885 170.578L177.421 212.1L178.976 264.647L180.549 321.994Z" fill="black"/>
<path d="M180.032 321.994C160.776 325.643 143.135 315.182 143.135 315.182L143.309 311.637C143.309 311.637 143.746 271.454 142.53 268.374C141.313 265.293 140.374 249.672 141.064 247.274C141.755 244.876 138.561 208.921 138.561 208.921L138.039 194.326L119.121 185.793L127.575 166.236C128.715 163.493 129.697 160.672 130.515 157.792C131.981 152.715 138.81 147.726 138.81 147.726C138.81 147.726 145.808 142.743 148.569 142.931C151.331 143.118 154.962 138.521 154.962 138.521C157.643 130.947 160.598 134.377 160.598 134.377C160.598 134.737 160.316 134.898 160.466 135.498C162.533 143.562 175.138 170.083 175.369 170.546L176.923 212.069L178.478 264.616L180.032 321.994Z" fill="white"/>
<path opacity="0.1" d="M174.843 171.73C172.771 170.771 161.8 156.869 161.8 156.869V153.705C161.401 152.663 159.029 153.298 157.103 154.028L157.93 134.81L158.869 135.675C160.926 143.734 174.603 171.266 174.843 171.73Z" fill="black"/>
<path d="M175.364 170.578C173.288 169.619 162.317 155.717 162.317 155.717V152.553C161.918 151.511 159.546 152.146 157.62 152.876L158.451 133.658L159.391 134.523C161.453 142.582 175.134 170.119 175.364 170.578Z" fill="white"/>
<path opacity="0.1" d="M143.657 239.909C143.915 239.909 157.047 238.376 157.047 238.376C157.047 238.376 164.998 255.728 164.477 259.951C163.956 264.173 163.012 267.91 159.813 267.248C156.615 266.586 142.6 267.769 142.6 267.769L143.657 239.909Z" fill="black"/>
<path d="M143.135 238.757C143.394 238.757 156.526 237.224 156.526 237.224C156.526 237.224 164.472 254.582 163.956 258.799C163.439 263.015 162.486 266.758 159.292 266.096C156.098 265.434 142.079 266.617 142.079 266.617L143.135 238.757Z" fill="white"/>
<path d="M153.031 230.61C153.031 230.61 165.083 237.798 165.341 239.992C165.6 242.186 159.207 239.033 157.827 238.652C156.918 238.409 155.993 238.249 155.06 238.173L145.85 238.449L153.031 230.61Z" fill="#CF6F80"/>
<path opacity="0.1" d="M171.48 172.626C172.18 172.626 172.748 171.996 172.748 171.219C172.748 170.442 172.18 169.811 171.48 169.811C170.779 169.811 170.212 170.442 170.212 171.219C170.212 171.996 170.779 172.626 171.48 172.626Z" fill="black"/>
<path d="M171.48 172.053C172.18 172.053 172.748 171.423 172.748 170.645C172.748 169.868 172.18 169.238 171.48 169.238C170.779 169.238 170.212 169.868 170.212 170.645C170.212 171.423 170.779 172.053 171.48 172.053Z" fill="#3F3D56"/>
<path opacity="0.1" d="M173.814 233.549C174.514 233.549 175.082 232.919 175.082 232.142C175.082 231.365 174.514 230.735 173.814 230.735C173.114 230.735 172.546 231.365 172.546 232.142C172.546 232.919 173.114 233.549 173.814 233.549Z" fill="black"/>
<path d="M173.814 232.971C174.514 232.971 175.082 232.341 175.082 231.563C175.082 230.786 174.514 230.156 173.814 230.156C173.114 230.156 172.546 230.786 172.546 231.563C172.546 232.341 173.114 232.971 173.814 232.971Z" fill="#3F3D56"/>
<path opacity="0.1" d="M172.743 203.088C173.444 203.088 174.011 202.458 174.011 201.68C174.011 200.903 173.444 200.273 172.743 200.273C172.043 200.273 171.475 200.903 171.475 201.68C171.475 202.458 172.043 203.088 172.743 203.088Z" fill="black"/>
<path d="M172.743 202.514C173.444 202.514 174.011 201.884 174.011 201.107C174.011 200.33 173.444 199.7 172.743 199.7C172.043 199.7 171.475 200.33 171.475 201.107C171.475 201.884 172.043 202.514 172.743 202.514Z" fill="#3F3D56"/>
<path d="M201.975 237.881C201.975 237.881 202.839 239.32 201.975 239.992C201.111 240.664 202.06 242.291 202.06 242.291C202.06 242.291 199.904 243.693 200.853 244.954C201.801 246.216 201.2 251.913 201.2 251.913L198.608 256.677C198.608 256.677 198.763 259.747 198.772 263.896C198.772 270.37 198.429 279.471 196.532 283.62L196.795 317.663C196.795 317.663 187.716 321.343 180.117 320.222L178.99 265.596C178.99 265.596 180.634 234.618 181.24 228.676C181.594 225.591 181.738 222.481 181.672 219.372C181.672 219.372 181.413 210.073 180.544 205.757C180.544 205.757 179.605 187.06 179.511 181.884C179.469 179.408 179.586 172.183 179.718 165.313C179.863 157.802 180.028 150.718 180.028 150.718L178.313 135.665C178.313 135.665 180.028 135.472 180.544 136.238C180.776 136.478 181.027 136.693 181.296 136.879C184.255 139.1 194.71 145.928 194.71 145.928C194.71 145.928 200.496 148.482 201.881 152.141C203.267 155.8 204.23 158.396 204.901 159.439C205.573 160.481 205.939 165.381 205.939 165.381C205.939 165.381 207.931 174.398 209.485 175.926C211.04 177.453 212.176 187.169 212.176 187.169L198.439 199.158C198.439 199.158 197.232 219.101 196.973 219.872C196.715 220.643 201.975 237.881 201.975 237.881Z" fill="white"/>
<path d="M202.497 237.881C202.497 237.881 203.356 239.32 202.497 239.992C201.637 240.664 202.576 242.291 202.576 242.291C202.576 242.291 200.435 243.709 201.374 244.97C202.313 246.231 201.722 251.929 201.722 251.929L199.129 256.693C199.129 256.693 199.284 259.763 199.298 263.912C199.298 270.386 198.955 279.487 197.058 283.636L197.316 317.679C197.316 317.679 188.223 321.359 180.634 320.238L179.511 265.611C179.511 265.611 181.155 234.634 181.761 228.691C182.116 225.607 182.259 222.496 182.188 219.387C182.188 219.387 181.93 210.088 181.066 205.772C181.066 205.772 180.126 187.075 180.028 181.899C179.985 179.423 180.108 172.199 180.234 165.329C180.38 157.818 180.544 150.734 180.544 150.734L178.281 135.477C178.281 135.477 180.544 135.477 181.066 136.254C181.295 136.496 181.547 136.711 181.817 136.895C184.776 139.115 195.235 145.944 195.235 145.944C195.235 145.944 201.017 148.498 202.403 152.157C203.788 155.816 204.751 158.412 205.427 159.454C206.104 160.497 206.46 165.397 206.46 165.397C206.46 165.397 208.452 174.414 210.006 175.941C211.561 177.469 212.684 187.164 212.684 187.164L198.946 199.152C198.946 199.152 197.739 219.095 197.476 219.867C197.213 220.638 202.497 237.881 202.497 237.881Z" fill="white"/>
<path opacity="0.1" d="M186.044 155.159L187.284 159.173L180.756 166.47C180.901 158.964 181.066 151.875 181.066 151.875L178.802 136.619C178.802 136.619 181.066 136.619 181.587 137.395C181.816 137.637 182.068 137.851 182.339 138.031L187.89 155.806L186.044 155.159Z" fill="black"/>
<path d="M185.523 154.007L186.767 158.021L180.239 165.318C180.385 157.807 180.549 150.723 180.549 150.723L178.281 135.467C178.281 135.467 180.549 135.467 181.066 136.243C181.296 136.485 181.548 136.699 181.817 136.884L187.373 154.654L185.523 154.007Z" fill="white"/>
<path opacity="0.1" d="M185.523 114.294C185.527 116.172 185.26 118.039 184.734 119.824C184.645 119.839 184.555 119.835 184.467 119.811C184.38 119.786 184.298 119.743 184.227 119.683C184.105 114.992 182.024 110.588 179.464 106.84C178.746 105.708 177.874 104.706 176.881 103.869C175.877 103.032 174.628 102.64 173.377 102.769C171.968 102.983 170.724 104.046 169.301 104.181C167.422 104.353 165.741 102.91 163.876 102.837C163.118 102.845 162.37 103.032 161.683 103.386C160.995 103.74 160.383 104.253 159.889 104.89C158.909 106.176 158.181 107.675 157.752 109.29C157.013 111.739 156.611 114.297 156.559 116.879C156.535 118.338 156.408 120.168 155.187 120.7C155.279 119.626 155.169 118.543 154.864 117.52C154.56 116.496 154.067 115.554 153.417 114.752L153.388 114.721C153.388 114.575 153.388 114.44 153.388 114.294C153.352 111.926 153.741 109.574 154.532 107.375C155.323 105.175 156.501 103.173 157.997 101.484C159.492 99.7955 161.276 98.4543 163.244 97.5387C165.212 96.6232 167.324 96.1516 169.458 96.1516C171.592 96.1516 173.704 96.6232 175.672 97.5387C177.64 98.4543 179.423 99.7955 180.919 101.484C182.415 103.173 183.593 105.175 184.384 107.375C185.175 109.574 185.564 111.926 185.528 114.294H185.523Z" fill="black"/>
<path d="M176.111 85.9743C173.67 84.7002 170.894 84.4592 168.305 85.2967C167.004 85.7241 165.778 86.4174 164.458 86.7666C161.64 87.5224 158.353 86.704 155.934 88.5336C154.591 89.5761 153.783 91.2233 153.031 92.8235L151.153 96.7954C150.129 98.969 149.095 101.179 148.668 103.572C148.241 105.964 148.499 108.643 149.866 110.567C150.861 111.969 152.331 112.85 153.412 114.168C154.059 114.971 154.55 115.912 154.854 116.935C155.157 117.958 155.268 119.039 155.178 120.111C156.403 119.589 156.521 117.755 156.549 116.295C156.601 113.713 157.004 111.155 157.742 108.706C158.171 107.09 158.899 105.592 159.879 104.307C160.374 103.67 160.986 103.157 161.673 102.803C162.361 102.449 163.109 102.261 163.866 102.253C165.745 102.326 167.431 103.764 169.291 103.592C170.7 103.462 171.949 102.394 173.368 102.185C174.618 102.054 175.868 102.446 176.871 103.285C177.864 104.121 178.734 105.123 179.45 106.256C182.014 110.004 184.095 114.398 184.217 119.099C184.748 119.532 185.513 118.969 185.776 118.302C186.039 117.635 186.049 116.853 186.382 116.217C186.767 115.482 187.505 115.091 188.082 114.539C189.548 113.136 189.914 110.775 189.858 108.633C189.801 106.491 189.426 104.317 189.792 102.211C190.013 100.918 190.511 99.7091 190.783 98.4321C191.055 97.155 191.088 95.7216 190.445 94.6218C189.506 93.0059 187.528 92.688 185.805 92.5368C183.846 92.3491 182.094 92.5889 180.845 90.7593C180.258 89.8046 179.598 88.9082 178.872 88.0801C178.623 87.8091 176.111 86.089 176.111 85.9743Z" fill="#512E4E"/>
<path opacity="0.1" d="M125.063 195.895L120.155 185.824L118.6 201.362C118.6 201.362 119.464 208.264 119.291 209.322C119.117 210.38 122.832 219.867 122.832 219.867C122.832 219.867 135.104 244.126 140.116 245.377L157.047 231.949L152.557 225.621C152.557 225.621 151.002 224.949 150.613 225.621C150.613 225.621 142.276 209.702 141.412 208.55C140.548 207.399 140.717 205.1 140.717 205.1C140.717 205.1 139.42 203.567 139.852 202.129C140.285 200.69 137.349 195.702 137.349 195.702L140.026 192.924L125.063 195.895Z" fill="black"/>
<path d="M120.413 184.677L119.117 185.824L117.562 201.363C117.562 201.363 118.426 208.264 118.253 209.322C118.079 210.38 121.799 219.867 121.799 219.867C121.799 219.867 134.066 244.126 139.078 245.377L156.014 231.949L151.519 225.621C151.519 225.621 149.965 224.949 149.575 225.621C149.575 225.621 141.238 209.702 140.374 208.55C139.51 207.399 139.684 205.1 139.684 205.1C139.684 205.1 138.387 203.567 138.819 202.129C139.251 200.69 136.311 195.702 136.311 195.702L138.988 192.924L120.413 184.677Z" fill="white"/>
<path opacity="0.1" d="M200.853 245.549C201.792 246.815 201.2 252.502 201.2 252.502L198.608 257.266C198.608 257.266 198.763 260.341 198.772 264.485L194.414 265.997C194.02 266.134 193.602 266.164 193.196 266.085C192.789 266.005 192.406 265.82 192.077 265.543C191.748 265.266 191.484 264.906 191.306 264.492C191.129 264.079 191.043 263.624 191.055 263.167L191.807 236.265L201.975 240.581C201.111 241.248 202.06 242.885 202.06 242.885C202.06 242.885 199.904 244.282 200.853 245.549Z" fill="black"/>
<path d="M201.374 244.97C202.313 246.237 201.722 251.929 201.722 251.929L199.129 256.693C199.129 256.693 199.284 259.763 199.298 263.912L194.86 265.45C194.474 265.583 194.065 265.612 193.667 265.534C193.27 265.456 192.894 265.274 192.573 265.003C192.251 264.731 191.992 264.379 191.818 263.974C191.644 263.57 191.56 263.125 191.572 262.677L192.328 235.692L202.501 240.008C201.632 240.675 202.581 242.306 202.581 242.306C202.581 242.306 200.435 243.708 201.374 244.97Z" fill="white"/>
<path d="M204.742 232.147C204.742 232.147 204.051 237.042 202.323 237.328C200.594 237.615 199.819 245.246 198.096 244.975C196.372 244.704 197.513 237.881 197.574 236.557C197.635 235.233 195.696 229.75 197.147 228.504C198.598 227.258 203.192 228.504 203.192 228.504L204.742 232.147Z" fill="#CF6F80"/>
<path opacity="0.1" d="M208.419 194.456L211.679 187.159C211.679 187.159 212.975 192.72 212.975 195.691C212.975 198.662 214.788 198.954 214.788 198.954C214.788 198.954 216.774 201.561 215.727 203.458C214.68 205.355 214.257 210.078 214.257 210.078C214.257 210.078 214.6 219.09 213.045 220.336C211.491 221.582 211.167 224.558 211.167 224.558C211.167 224.558 208.311 230.213 208.4 231.558C208.49 232.903 204.427 242.009 204.427 242.009C204.427 242.009 206.414 230.693 194.836 225.804C194.836 225.804 194.747 221.962 195.611 220.909C196.476 219.856 197.823 219.377 196.978 214.055C196.133 208.733 196.734 202.374 196.734 201.097C196.734 199.82 199.326 191.855 199.326 191.855L208.419 194.456Z" fill="black"/>
<path d="M209.828 186.116L212.674 187.159C212.674 187.159 213.975 192.72 213.975 195.691C213.975 198.662 215.788 198.954 215.788 198.954C215.788 198.954 217.775 201.561 216.727 203.458C215.68 205.355 215.262 210.078 215.262 210.078C215.262 210.078 215.605 219.09 214.05 220.336C212.496 221.582 212.148 224.558 212.148 224.558C212.148 224.558 209.297 230.213 209.387 231.558C209.476 232.903 205.409 242.009 205.409 242.009C205.409 242.009 207.4 230.693 195.818 225.804C195.818 225.804 195.733 221.962 196.598 220.909C197.462 219.856 198.81 219.377 197.964 214.055C197.119 208.733 197.72 202.374 197.72 201.097C197.72 199.82 200.313 191.855 200.313 191.855L209.828 186.116Z" fill="white"/>
<path opacity="0.1" d="M146.963 375.261C146.963 375.261 151.5 372.097 154.478 374.395C157.456 376.694 146.963 375.261 146.963 375.261Z" fill="black"/>
<path opacity="0.1" d="M182.216 365.477C182.216 365.477 186.232 364.903 189.604 368.933C192.976 372.962 182.216 365.477 182.216 365.477Z" fill="black"/>
<g opacity="0.1">
<path d="M188.092 113.397C187.514 113.95 186.772 114.346 186.387 115.081C186.058 115.711 186.049 116.488 185.786 117.166C185.523 117.843 184.757 118.396 184.227 117.968C184.104 113.277 182.019 108.873 179.459 105.12C178.744 103.987 177.874 102.985 176.881 102.149C175.876 101.31 174.625 100.918 173.373 101.049C171.964 101.262 170.724 102.326 169.301 102.456C167.422 102.633 165.736 101.189 163.871 101.116C163.114 101.125 162.366 101.313 161.679 101.668C160.992 102.023 160.382 102.537 159.889 103.175C158.908 104.459 158.18 105.956 157.752 107.57C157.013 110.019 156.611 112.577 156.559 115.159C156.53 116.613 156.408 118.427 155.197 118.969C155.225 119.354 155.225 119.741 155.197 120.126C156.418 119.605 156.54 117.77 156.568 116.311C156.62 113.729 157.022 111.17 157.761 108.721C158.19 107.106 158.917 105.608 159.898 104.322C160.392 103.686 161.003 103.173 161.69 102.819C162.377 102.465 163.123 102.277 163.881 102.268C165.759 102.341 167.45 103.78 169.31 103.608C170.719 103.478 171.968 102.409 173.382 102.201C174.634 102.07 175.885 102.462 176.89 103.3C177.883 104.137 178.753 105.139 179.469 106.272C182.029 110.019 184.114 114.413 184.236 119.115C184.767 119.548 185.532 118.985 185.795 118.318C186.058 117.65 186.068 116.869 186.396 116.233C186.782 115.498 187.524 115.107 188.101 114.554C189.567 113.152 189.933 110.791 189.877 108.648C189.877 108.581 189.877 108.513 189.877 108.45C189.787 110.306 189.341 112.198 188.092 113.397Z" fill="black"/>
<path d="M153.421 113.027C152.341 111.708 150.866 110.827 149.875 109.43C149.041 108.194 148.564 106.705 148.508 105.161C148.361 107.09 148.846 109.014 149.875 110.577C150.866 111.979 152.341 112.86 153.421 114.179C154.458 115.469 155.081 117.104 155.192 118.828C155.264 117.779 155.144 116.724 154.84 115.727C154.535 114.73 154.053 113.812 153.421 113.027Z" fill="black"/>
<path d="M190.793 97.2905C190.515 98.5676 190.022 99.7821 189.797 101.07C189.663 101.93 189.615 102.804 189.651 103.676C189.667 103.179 189.716 102.684 189.797 102.195C190.022 100.903 190.515 99.6935 190.793 98.4164C190.954 97.7121 191.006 96.9824 190.948 96.2585C190.918 96.6062 190.867 96.9511 190.793 97.2905Z" fill="black"/>
</g>
<path opacity="0.1" d="M62.3387 396.454C87.6137 396.454 108.103 392.802 108.103 388.297C108.103 383.792 87.6137 380.139 62.3387 380.139C37.0638 380.139 16.5745 383.792 16.5745 388.297C16.5745 392.802 37.0638 396.454 62.3387 396.454Z" fill="#5A98F2"/>
<path d="M63.8135 232.027H60.8687V305.612H63.8135V232.027Z" fill="#535461"/>
<path d="M82.3184 305.388L82.1352 308.703L81.8722 313.394L81.7642 315.343L81.5058 320.035L81.3931 321.984L81.1301 326.675L78.1618 379.879C78.0328 382.168 77.1227 384.316 75.6167 385.887C74.1107 387.458 72.122 388.333 70.0554 388.333H54.6221C52.556 388.333 50.5679 387.458 49.0626 385.887C47.5574 384.316 46.6483 382.167 46.5204 379.879L43.5662 326.639L43.3032 321.948L43.1952 319.998L42.9321 315.307L42.8241 313.357L42.5611 308.666L42.3732 305.351C42.3406 304.713 42.4258 304.074 42.6236 303.474C42.8213 302.874 43.1275 302.325 43.5233 301.861C43.9191 301.396 44.3962 301.027 44.9253 300.775C45.4544 300.523 46.0244 300.393 46.6002 300.394H78.1665C78.7402 300.4 79.3067 300.535 79.8313 300.793C80.3558 301.051 80.8271 301.426 81.2161 301.894C81.6052 302.362 81.9037 302.913 82.0933 303.514C82.2828 304.115 82.3594 304.753 82.3184 305.388Z" fill="#3F3D56"/>
<path d="M82.1353 308.703L81.8723 313.378H42.8055L42.5425 308.703H82.1353Z" fill="#9D9CB5"/>
<path d="M81.7641 315.328L81.5058 320.008H43.1763L42.9133 315.328H81.7641Z" fill="#9D9CB5"/>
<path d="M81.3931 321.963L81.1348 326.639H43.5474L43.2844 321.963H81.3931Z" fill="#9D9CB5"/>
<path d="M38.0476 259.607C55.1951 273.378 62.3529 294.916 62.3529 294.916C62.3529 294.916 41.6875 294.129 24.5353 280.357C7.38313 266.586 0.239502 245.053 0.239502 245.053C0.239502 245.053 20.8954 245.835 38.0476 259.607Z" fill="#5A98F2"/>
<path d="M0.225342 245.053C0.225342 245.053 21.6797 258.267 28.5603 269.208C35.4409 280.149 62.3528 294.916 62.3528 294.916" stroke="#535461" stroke-width="2" stroke-miterlimit="10"/>
<path d="M49.1176 231.866C58.4499 239.356 62.3528 251.079 62.3528 251.079C62.3528 251.079 51.1043 250.652 41.7674 243.161C32.4304 235.671 28.5369 223.943 28.5369 223.943C28.5369 223.943 39.7807 224.37 49.1176 231.866Z" fill="#5A98F2"/>
<path d="M28.5369 223.943C28.5369 223.943 40.2128 231.136 43.956 237.089C47.6992 243.041 62.3528 251.079 62.3528 251.079" stroke="#535461" stroke-width="2" stroke-miterlimit="10"/>
<path d="M75.9028 250.485C65.1804 263.563 62.9119 280.654 62.9119 280.654C62.9119 280.654 78.0304 276.537 88.7435 263.453C99.4566 250.37 101.734 233.284 101.734 233.284C101.734 233.284 86.6253 237.407 75.9028 250.485Z" fill="#5A98F2"/>
<path d="M101.744 233.289C101.744 233.289 87.776 246.695 84.2253 255.932C80.6746 265.168 62.9119 280.654 62.9119 280.654" stroke="#535461" stroke-width="2" stroke-miterlimit="10"/>
<path d="M469.511 245.882C469.511 245.882 461.757 203.067 464.725 197.74C464.725 197.74 464.833 192.788 464.655 186.476C464.655 186.236 464.655 185.996 464.655 185.751C465.177 186.138 465.722 186.486 466.285 186.794C469.02 188.353 472.159 188.803 475.161 188.066L472.813 185.162C472.249 184.469 471.662 183.718 471.54 182.801C471.418 181.884 471.756 181.065 472.047 180.247C474.278 173.992 474.396 166.126 470.098 161.352C466.468 157.338 465.585 152.157 461.644 148.493C458.765 145.808 457.183 141.873 455.689 138.068C454.426 134.852 453.153 131.609 452.429 128.2C451.866 125.537 451.64 122.779 450.866 120.178C450.091 117.577 448.639 115.049 446.371 113.887C445.563 113.475 444.666 113.241 443.929 112.693C442.961 111.969 442.379 110.791 441.679 109.759C438.123 104.546 426.217 107.616 420.581 109.733C419.049 110.266 417.63 111.138 416.411 112.297L416.462 112.203C416.505 112.125 416.556 112.047 416.603 111.969C415.986 112.522 415.454 113.182 415.025 113.924C414.203 115.367 413.861 117.051 413.175 118.615C412.348 120.465 407.75 125.631 409.727 127.71C409.866 127.85 410.025 127.963 410.197 128.044C410.939 128.387 411.757 128.478 412.545 128.305L412.461 128.529C411.786 130.364 411.439 132.327 411.442 134.309C411.442 142.873 417.806 149.816 425.663 149.816C427.14 149.818 428.609 149.567 430.017 149.071C430.05 149.269 430.078 149.467 430.111 149.665C430.111 149.744 430.134 149.822 430.144 149.9L429.895 150.286C429.882 150.262 429.868 150.239 429.853 150.218L422.479 161.654C421.352 162.535 414.861 167.747 414.495 171.657C414.109 175.936 413.724 180.945 413.724 180.945L413.673 182.019C413.35 182.318 412.974 182.536 412.568 182.657C412.163 182.779 411.738 182.801 411.324 182.723C409.023 182.306 409.023 192.105 409.023 192.105C409.023 192.105 407.492 193.669 406.44 192.314C405.388 190.958 402.607 195.551 402.607 195.551L385.183 196.385L384.783 196.411L383.844 193.184C383.743 192.844 383.525 192.561 383.237 192.399C382.95 192.236 382.616 192.205 382.308 192.314C382.236 192.34 382.165 192.373 382.097 192.413L382.031 192.454L381.909 192.548L381.848 192.611C381.814 192.645 381.783 192.681 381.754 192.72L381.698 192.793L381.67 192.824C381.561 192.991 381.489 193.183 381.46 193.386C381.431 193.589 381.444 193.796 381.501 193.992L382.308 196.76C378.946 197.51 375.508 199.627 378.311 205.454L364.099 202.541L368.697 206.825L392.434 212.262C392.12 212.887 392.326 213.794 393.308 215.071C397.535 220.581 405.237 222.077 408.337 222.463C409.156 224.495 410.178 226.418 411.385 228.196L411.118 233.685C411.118 233.685 403.27 275.52 401.832 277.642C402.558 276.729 403.222 275.759 403.819 274.738C401.541 283.334 398.357 295.098 397.521 296.86C396.178 299.675 394.933 311.064 396.464 311.794C396.934 312.018 398.277 311.908 400.193 311.747V312.69L400.109 348.442C400.109 348.442 400.494 370.371 399.437 372.461C398.38 374.552 398.099 378.935 398.099 378.935C398.099 378.935 393.872 387.583 390.523 391.06C390.5 391.087 390.475 391.111 390.448 391.132L390.344 390.319C390.344 390.319 386.319 395.959 377.414 395.641C377.414 395.641 372.056 399.509 380.002 399.717C387.949 399.926 398.099 399.405 398.099 399.405C398.099 399.405 405.186 387.416 411.122 388.98V398.065H412.94V388.834C413.783 388.218 414.504 387.418 415.061 386.484C415.617 385.549 415.996 384.499 416.176 383.397C416.332 382.261 416.218 381.1 415.845 380.028C415.473 378.955 414.855 378.009 414.053 377.283C413.693 376.921 413.404 376.481 413.204 375.989C413.004 375.498 412.898 374.966 412.893 374.427L412.827 374.489C412.827 374.307 412.785 374.119 412.766 373.926C412.245 369.235 411.592 359.555 413.898 352.393C417.059 342.573 418.017 328.896 415.716 320.754C414.973 318.151 414.363 315.504 413.889 312.826C413.832 312.487 413.781 312.164 413.734 311.861C415.307 312.098 416.865 312.446 418.397 312.904C423.728 314.535 435.39 314.838 445.347 314.749C445.37 315.051 445.399 315.369 445.431 315.687C445.609 317.898 445.98 320.083 446.54 322.213C447.789 326.383 448.362 344.768 448.362 344.768C448.362 344.768 449.973 359.884 449.095 366.034C448.625 369.454 448.156 372.889 447.888 376.34V376.407C447.888 376.407 445.248 384.747 443.318 389.277C443.271 389.392 443.219 389.506 443.172 389.616C442.658 389.668 442.151 389.792 441.665 389.986C441.665 389.986 439.077 395.719 436.498 396.668C433.92 397.617 434.775 400.739 440.613 399.592C446.451 398.446 455.266 397.507 455.266 397.507L455.647 391.659L457.441 389.167L456.971 395L458.883 394.583L458.629 387.489L461.565 383.413C461.565 383.413 465.11 379.91 459.841 373.019V373.17C459.784 373.071 459.733 372.967 459.672 372.868V372.837C458.798 371.336 458.103 368.536 459.376 363.569C461.677 354.593 463.016 346.446 463.016 346.446C463.016 346.446 468.154 324.622 461.978 314.296H462.25C461.617 312.843 461.17 311.299 460.921 309.709C460.89 309.521 460.862 309.328 460.837 309.13C465.406 308.838 469.892 307.921 473.55 305.94C473.536 305.919 471.334 254.128 469.511 245.882ZM411.493 209.76V209.864L410.554 209.916L411.493 209.76ZM408.271 210.255C408.117 210.293 407.972 210.37 407.849 210.479C407.445 211.113 407.191 211.85 407.111 212.621L405.646 212.257C405.646 212.257 404.617 212.012 403.138 211.735L402.438 210.953C404.364 210.776 406.365 210.516 408.271 210.255Z" fill="url(#paint1_linear_55152_1384)"/>
<path d="M456.755 387.562L456.196 394.948L458.07 394.531L457.788 386.519L456.755 387.562Z" fill="#1D2366"/>
<path d="M414.001 352.493C411.742 359.634 412.381 369.271 412.888 373.952C413.076 375.683 413.25 376.736 413.25 376.736C413.25 376.736 409.873 385.274 409.591 385.597C409.31 385.92 399.653 392.462 399.653 392.462L392.904 396.835C392.904 396.835 386.056 393.504 389.339 392.357C390.01 392.059 390.614 391.602 391.11 391.018C394.398 387.552 398.526 378.935 398.526 378.935C398.526 378.935 398.808 374.562 399.841 372.482C400.874 370.403 400.499 348.547 400.499 348.547L400.578 312.92V308.275L413.424 308.379C413.505 309.956 413.69 311.524 413.978 313.071C414.439 315.74 415.036 318.379 415.767 320.973C418.031 329.099 417.092 342.709 414.001 352.493Z" fill="#FFB0B1"/>
<path opacity="0.1" d="M413.25 376.736C413.25 376.736 409.873 385.274 409.591 385.597C409.31 385.92 399.653 392.462 399.653 392.462L392.904 396.835C392.904 396.835 386.056 393.504 389.339 392.357C390.01 392.059 390.614 391.602 391.11 391.018L391.401 393.296L393.651 393.191L412.907 373.963C413.076 375.683 413.25 376.736 413.25 376.736Z" fill="black"/>
<path d="M413.015 374.447L393.651 393.806L391.401 393.911L390.931 390.262C390.931 390.262 386.995 395.881 378.25 395.568C378.25 395.568 372.999 399.42 380.782 399.629C388.564 399.837 398.502 399.316 398.502 399.316C398.502 399.316 405.444 387.327 411.254 388.891V397.945H413.038V388.808C413.868 388.188 414.576 387.388 415.12 386.456C415.665 385.525 416.033 384.481 416.204 383.387C416.359 382.26 416.249 381.108 415.886 380.042C415.524 378.976 414.92 378.031 414.133 377.299C413.781 376.933 413.501 376.491 413.309 376.001C413.116 375.511 413.017 374.982 413.015 374.447Z" fill="#1D2366"/>
<path d="M458.54 363.626C457.291 368.578 457.972 371.367 458.826 372.863V372.894C459.923 374.741 460.685 376.807 461.071 378.977L461.146 379.446L452.336 393.702L447.554 395.787C447.554 395.787 439.866 392.873 441.27 392.039C441.622 391.836 442.172 390.752 442.801 389.256C444.68 384.747 447.273 376.428 447.273 376.428V376.36C447.545 372.925 447.977 369.501 448.456 366.092C449.316 359.957 447.738 344.898 447.738 344.898C447.738 344.898 447.174 326.587 445.953 322.422C445.401 320.304 445.035 318.133 444.858 315.938C444.605 313.331 444.548 311.184 444.548 311.184C444.548 311.184 449.612 303.365 458.892 311.809C459.634 312.483 460.287 313.269 460.832 314.144C467.243 324.267 462.081 346.566 462.081 346.566C462.081 346.566 460.79 354.677 458.54 363.626Z" fill="#FFB0B1"/>
<path opacity="0.1" d="M461.161 379.446L452.35 393.702L447.569 395.787C447.569 395.787 439.88 392.873 441.284 392.039C441.637 391.836 442.186 390.752 442.816 389.256C446.07 389.225 447.756 392.665 447.756 392.665L451.88 391.935C451.88 391.935 457.319 380.072 458.54 379.347C459.761 378.623 458.728 373.931 458.728 373.931V372.738C458.761 372.779 458.789 372.826 458.826 372.868V372.899C459.923 374.746 460.685 376.812 461.071 378.982L461.161 379.446Z" fill="black"/>
<path d="M448.038 392.972C448.038 392.972 445.69 388.187 441.19 389.954C441.19 389.954 438.659 395.688 436.127 396.616C433.596 397.544 434.441 400.671 440.162 399.53C445.882 398.388 454.505 397.445 454.505 397.445L454.881 391.612L460.696 383.392C460.696 383.392 464.162 379.905 459.005 373.04V374.234C459.005 374.234 460.038 378.925 458.817 379.649C457.596 380.374 452.176 392.243 452.176 392.243L448.038 392.972Z" fill="#1D2366"/>
<path opacity="0.1" d="M413.438 308.369C413.519 309.946 413.704 311.514 413.992 313.06C408.704 312.2 403.796 312.628 400.578 312.909V308.265L413.438 308.369Z" fill="black"/>
<path opacity="0.1" d="M461.353 315.442C461.353 315.442 453.839 315.849 444.877 315.932C444.624 313.326 444.567 311.179 444.567 311.179C444.567 311.179 449.63 303.36 458.911 311.804C459.653 312.478 460.306 313.264 460.851 314.139C460.996 314.584 461.164 315.019 461.353 315.442Z" fill="black"/>
<path d="M461.353 314.504C461.353 314.504 428.439 316.271 418.407 313.149C408.375 310.027 398.432 312.732 396.934 312.007C395.436 311.283 396.652 299.935 397.967 297.126C399.282 294.316 406.496 265.903 406.496 265.903L413.438 225.736L420.751 223.5L421.267 223.338L434.009 219.439L443.346 216.578C443.346 216.578 461.912 297.022 460.32 302.953C459.742 305.225 459.649 307.614 460.048 309.933C460.291 311.516 460.73 313.054 461.353 314.504Z" fill="#1D2366"/>
<path d="M389.241 198.266C389.241 198.266 382.665 206.085 387.644 210.443C392.622 214.8 395.896 210.86 395.896 210.86L389.241 198.266Z" fill="#C7DAF5"/>
<path opacity="0.1" d="M389.241 198.266C389.241 198.266 382.665 206.085 387.644 210.443C392.622 214.8 395.896 210.86 395.896 210.86L389.241 198.266Z" fill="black"/>
<path d="M442.365 146.861C442.365 146.861 441.594 147.674 440.434 148.873C438.781 150.588 436.334 153.095 434.164 155.196C431.158 158.099 428.679 160.231 429.566 158.412C430.454 156.593 430.285 153.424 429.843 150.458C429.81 150.26 429.782 150.061 429.749 149.869C429.384 147.69 428.899 145.539 428.298 143.426C428.298 143.426 433.154 136.462 435.841 133.715C436.841 132.673 437.541 132.245 437.583 132.97C437.63 133.945 438.288 136.097 439.105 138.38C439.129 138.453 439.152 138.521 439.18 138.594C439.725 140.158 440.34 141.763 440.88 143.15C441.707 145.276 442.365 146.861 442.365 146.861Z" fill="#FFB0B1"/>
<path opacity="0.1" d="M439.18 138.594C438.724 141.318 437.617 143.857 435.974 145.943C434.332 148.03 432.214 149.589 429.843 150.458C429.47 148.078 428.954 145.729 428.298 143.426C428.298 143.426 437.443 130.317 437.583 132.97C437.616 133.976 438.33 136.207 439.18 138.594Z" fill="black"/>
<path opacity="0.1" d="M428.932 153.96L430.116 152.11C430.116 152.11 430.9 157.416 433.784 155.076C436.667 152.735 436.808 172.689 436.808 172.689L433.713 224.047L411.348 222.562L411.982 197.745L414.513 185.235L420.774 167.049L424.498 161.039L428.932 153.96Z" fill="black"/>
<path d="M436.808 173.007L433.99 219.445L433.694 224.365L421.225 223.536L420.755 223.505L411.362 222.88L411.996 198.058L414.527 185.548L420.788 167.362L424.512 161.352L428.946 154.247L430.13 152.402C430.13 152.402 430.914 157.708 433.798 155.368L433.859 155.321C436.677 153.34 436.808 173.007 436.808 173.007Z" fill="#1D2366"/>
<path d="M414.842 181.201C414.842 181.201 413.719 183.807 411.465 183.385C409.211 182.963 409.215 192.767 409.215 192.767C409.215 192.767 407.717 194.331 406.684 192.976C405.651 191.62 402.927 196.202 402.927 196.202L385.859 197.036C385.859 197.036 393.453 200.888 391.965 212.543C391.965 212.543 417.749 210.771 418.595 208.066C419.44 205.36 414.842 181.201 414.842 181.201Z" fill="white"/>
<path opacity="0.03" d="M414.842 181.201C414.842 181.201 413.719 183.807 411.465 183.385C409.211 182.963 409.215 192.767 409.215 192.767C409.215 192.767 407.717 194.331 406.684 192.976C405.651 191.62 402.927 196.202 402.927 196.202L385.859 197.036C385.859 197.036 393.453 200.888 391.965 212.543C391.965 212.543 417.749 210.771 418.595 208.066C419.44 205.36 414.842 181.201 414.842 181.201Z" fill="black"/>
<path d="M365.241 203.161L369.74 207.425L406.778 216.062L402.185 210.86L365.241 203.161Z" fill="white"/>
<path d="M429.002 155.602C428.387 156.645 426.626 161.982 425.156 166.642C423.93 170.526 422.906 173.94 422.906 173.94C422.906 173.94 420.516 191.214 419.294 194.336C418.073 197.458 418.736 209.635 418.736 209.635L414.184 239.705C414.184 239.705 412.123 255.212 408.938 264.475C405.796 273.592 402.297 277.866 402.189 278.001C403.598 275.885 411.277 234.217 411.277 234.217L413.813 181.665C413.813 181.665 414.184 176.671 414.56 172.402C414.936 168.133 422.545 162.306 422.545 162.306L429.881 150.729C430.618 151.823 430.125 153.731 429.002 155.602Z" fill="white"/>
<path d="M409.873 223.14C409.873 223.14 399.071 222.619 393.839 215.645C388.606 208.67 405.932 212.861 405.932 212.861L410.437 214.008L409.873 223.14Z" fill="#FFB0B1"/>
<path opacity="0.1" d="M460.32 302.959C459.742 305.23 459.648 307.62 460.047 309.938C448.264 310.866 435.658 307.332 435.658 307.332C433.309 309.73 427.124 313.264 427.124 313.264L423.752 266.873C421.596 260.618 420.75 227.847 420.75 227.847C420.75 227.847 420.943 226.132 421.22 223.562C421.22 223.5 421.22 223.432 421.244 223.369C422.084 216.192 423.752 202.718 424.569 200.899C425.696 198.397 421.103 191.74 421.103 191.74L423.193 171.959L423.446 169.572C427.852 167.388 431.229 160.413 431.229 160.413L433.821 155.373C436.639 153.366 436.785 173.033 436.785 173.033L433.967 219.471L443.304 216.609C443.304 216.609 461.912 297.027 460.32 302.959Z" fill="black"/>
<path d="M472.414 306.164C459.568 313.243 436.221 306.685 436.221 306.685C433.873 309.083 427.687 312.617 427.687 312.617L424.31 266.226C422.159 259.971 421.314 227.201 421.314 227.201C421.314 227.201 424.029 202.749 425.156 200.252C425.485 199.522 425.325 198.438 424.935 197.271C423.019 191.713 422.314 185.732 422.878 179.814L423.78 171.313L424.029 168.931C428.439 166.741 431.816 159.767 431.816 159.767L434.164 155.201L438.485 146.788L440.533 142.806L440.88 143.155L443.534 145.824C443.534 145.824 444.661 146.866 446.352 148.43C450.029 151.87 456.384 157.927 459.662 161.633C462.546 164.896 463.457 177.588 463.72 187.143C463.894 193.434 463.791 198.365 463.791 198.365C460.883 203.677 468.487 246.32 468.487 246.32C470.258 254.561 472.414 306.164 472.414 306.164Z" fill="white"/>
<path opacity="0.03" d="M447.756 159.663C447.756 159.663 438.941 178.287 439.965 185.365C440.988 192.444 443.9 200.456 442.496 202.327C442.014 203.036 441.39 203.611 440.674 204.008C439.957 204.405 439.168 204.613 438.368 204.615C436.959 204.719 433.201 207.633 433.201 207.946C433.201 208.259 429.731 208.259 426.626 209.718C423.522 211.178 418.938 212.006 418.938 212.006C418.938 212.006 410.014 211.694 409.183 212.632C408.351 213.57 407.497 219.184 409.277 223.661C411.057 228.139 413.034 231.48 414.527 232.09C416.021 232.7 425.499 229.176 433.187 228.342C440.876 227.508 449.222 220.748 449.222 220.748C449.222 220.748 458.413 217.099 460.024 210.964C461.635 204.829 458.056 171.109 458.056 171.109C458.056 171.109 455.351 155.394 447.756 159.663Z" fill="black"/>
<path opacity="0.03" d="M446.629 158.099C446.629 158.099 437.814 176.728 438.847 183.802C439.88 190.875 442.783 198.892 441.374 200.768C440.893 201.478 440.27 202.054 439.554 202.451C438.839 202.848 438.05 203.056 437.25 203.057C435.841 203.161 432.084 206.075 432.084 206.387C432.084 206.7 428.613 206.7 425.508 208.154C422.404 209.609 417.82 210.443 417.82 210.443C417.82 210.443 408.896 210.13 408.07 211.068C407.243 212.006 406.379 217.625 408.163 222.098C409.948 226.57 411.921 229.916 413.414 230.526C414.908 231.136 424.386 227.612 432.074 226.784C439.763 225.955 448.109 219.184 448.109 219.184C448.109 219.184 457.295 215.535 458.887 209.405C460.48 203.275 456.92 169.546 456.92 169.546C456.92 169.546 454.224 153.835 446.629 158.099Z" fill="black"/>
<path d="M447.479 158.725C447.479 158.725 438.664 177.354 439.697 184.427C440.73 191.501 443.633 199.517 442.228 201.389C441.748 202.1 441.124 202.678 440.408 203.076C439.691 203.474 438.901 203.681 438.1 203.682C436.691 203.786 432.934 206.7 432.934 207.008C432.934 207.315 429.468 207.32 426.358 208.78C423.249 210.239 418.67 211.068 418.67 211.068C418.67 211.068 409.746 210.755 408.915 211.694C408.084 212.632 407.229 218.251 409.009 222.723C410.789 227.195 412.766 230.542 414.26 231.152C415.753 231.762 425.231 228.238 432.92 227.404C440.608 226.57 448.954 219.809 448.954 219.809C448.954 219.809 458.145 216.161 459.756 210.026C461.367 203.891 457.812 170.171 457.812 170.171C457.812 170.171 455.069 154.482 447.479 158.725Z" fill="white"/>
<path opacity="0.1" d="M447.287 208.691C447.287 208.691 440.242 207.127 442.693 209.734C445.145 212.34 445.131 214.623 448.132 214.519C451.133 214.415 447.287 208.691 447.287 208.691Z" fill="black"/>
<path opacity="0.1" d="M459.193 264.767C459.193 264.767 456.008 267.159 462.1 272.674C468.192 278.189 459.193 264.767 459.193 264.767Z" fill="black"/>
<path opacity="0.1" d="M453.115 284.433C453.115 284.746 451.988 295.901 456.206 298.69C460.423 301.478 453.115 284.433 453.115 284.433Z" fill="black"/>
<path d="M386.15 197.01C382.75 197.14 375.404 198.292 379.213 206.179C382.581 213.158 388.24 208.493 391.424 204.954C390.648 201.654 388.76 198.811 386.15 197.01Z" fill="#FFB0B1"/>
<path opacity="0.1" d="M446.352 148.748C442.745 151.484 439.72 153.794 439.128 154.273C437.513 155.602 434.432 163.405 432.445 167.388C430.862 170.593 425.72 171.417 423.78 171.62L424.029 169.238C428.439 167.049 431.816 160.075 431.816 160.075L440.533 143.113L443.534 146.142C443.534 146.142 444.661 147.184 446.352 148.748Z" fill="black"/>
<path d="M446.352 148.435C442.745 151.172 439.72 153.481 439.128 153.966C437.513 155.29 434.432 163.093 432.445 167.075C430.862 170.281 425.72 171.104 423.78 171.307L424.029 168.925C428.439 166.736 431.816 159.762 431.816 159.762L440.533 142.801L443.534 145.819C443.534 145.819 444.661 146.851 446.352 148.435Z" fill="#DCE7FF"/>
<path d="M439.41 135.154C439.412 138.283 438.557 141.339 436.959 143.916C435.071 146.963 432.261 149.159 429.039 150.104C425.818 151.048 422.397 150.68 419.399 149.066C416.401 147.452 414.024 144.698 412.699 141.305C411.374 137.912 411.188 134.104 412.176 130.572C413.165 127.04 415.261 124.018 418.085 122.055C420.909 120.091 424.273 119.317 427.568 119.871C430.863 120.425 433.869 122.272 436.042 125.076C438.215 127.88 439.41 131.456 439.41 135.154Z" fill="#FFB0B1"/>
<path opacity="0.1" d="M463.72 187.148C461.813 185.846 460.26 183.994 459.226 181.79C458.441 180.07 457.92 178.084 456.581 176.864C455.374 175.769 453.763 175.503 452.26 175.014C447.32 173.392 443.177 168.388 443.022 162.676C442.947 159.986 443.703 157.302 443.36 154.638C443.165 153.131 442.625 151.704 441.792 150.494C441.378 149.916 440.924 149.374 440.434 148.873C439.777 148.185 439.086 147.518 438.485 146.788C438.106 146.336 437.776 145.838 437.499 145.303C437.275 144.864 437.094 144.401 436.959 143.921C436.019 140.731 436.874 136.947 435.841 133.72L435.785 133.543C435.395 132.396 434.601 131.25 433.497 131.161C432.394 131.072 431.45 132.089 430.397 132.542C428.195 133.491 425.818 131.875 423.982 130.228C422.145 128.581 420.074 126.699 417.74 127.064C416.195 127.309 414.974 128.477 413.551 129.081C413.229 129.219 412.898 129.326 412.56 129.399C413.764 126.066 415.977 123.302 418.818 121.583C421.659 119.863 424.95 119.296 428.127 119.977C431.305 120.659 434.169 122.547 436.228 125.317C438.287 128.088 439.412 131.568 439.41 135.159C439.412 136.244 439.31 137.325 439.105 138.386C439.129 138.459 439.152 138.526 439.18 138.599C439.725 140.163 440.34 141.768 440.88 143.155L443.534 145.824C443.534 145.824 444.661 146.866 446.352 148.43C450.03 151.87 456.384 157.927 459.662 161.633C462.546 164.907 463.448 177.594 463.72 187.148Z" fill="black"/>
<path d="M413.386 119.558C414.058 118.041 414.391 116.342 415.194 114.903C416.373 112.818 418.43 111.484 420.544 110.676C426.062 108.565 437.724 105.5 441.209 110.676C441.895 111.719 442.463 112.876 443.412 113.595C444.135 114.142 445.009 114.377 445.803 114.789C448.024 115.946 449.442 118.469 450.199 121.044C450.955 123.619 451.18 126.381 451.734 129.034C452.444 132.438 453.688 135.665 454.928 138.87C456.389 142.655 457.939 146.58 460.757 149.254C464.603 152.902 465.453 158.068 469.023 162.071C473.25 166.825 473.114 174.669 470.934 180.898C470.648 181.717 470.324 182.572 470.437 183.442C470.549 184.313 471.132 185.105 471.681 185.798L473.992 188.691C468.525 190.156 462.339 186.987 459.794 181.425C459.01 179.705 458.488 177.724 457.145 176.499C455.943 175.404 454.327 175.144 452.829 174.654C447.888 173.028 443.745 168.018 443.59 162.306C443.515 159.621 444.271 156.937 443.929 154.278C443.738 152.761 443.196 151.324 442.355 150.108C441.064 148.237 439.114 146.981 438.062 144.896C436.282 141.409 437.635 136.879 436.353 133.137C435.958 131.99 435.169 130.843 434.066 130.755C432.962 130.666 432.018 131.682 430.961 132.136C428.763 133.084 426.387 131.474 424.55 129.821C422.714 128.169 420.643 126.293 418.304 126.663C416.758 126.903 415.542 128.07 414.119 128.68C413.067 129.128 410.935 129.53 410.014 128.544C408.07 126.558 412.574 121.414 413.386 119.558Z" fill="#591D4B"/>
<path opacity="0.1" d="M461.1 179.705C460.31 177.985 459.794 176.004 458.451 174.784C457.248 173.69 455.633 173.424 454.13 172.934C449.193 171.313 445.051 166.303 444.891 160.591C444.816 157.906 445.572 155.217 445.234 152.558C445.037 151.05 444.496 149.624 443.661 148.414C442.365 146.543 440.415 145.287 439.368 143.202C437.588 139.72 438.941 135.19 437.654 131.443C437.264 130.301 436.47 129.154 435.371 129.06C434.272 128.967 433.319 129.994 432.267 130.447C430.069 131.396 427.687 129.78 425.856 128.133C424.024 126.486 421.943 124.604 419.609 124.969C418.064 125.214 416.843 126.381 415.424 126.986C414.372 127.434 412.235 127.841 411.315 126.856C409.38 124.771 413.884 119.636 414.692 117.791C415.363 116.269 415.697 114.575 416.505 113.136C416.547 113.058 416.594 112.98 416.641 112.902C416.037 113.457 415.515 114.115 415.096 114.851C414.293 116.29 413.959 117.979 413.287 119.506C412.475 121.351 407.971 126.501 409.911 128.571C410.85 129.561 412.963 129.154 414.015 128.706C415.424 128.096 416.655 126.929 418.2 126.689C420.549 126.319 422.615 128.2 424.447 129.848C426.278 131.495 428.674 133.111 430.862 132.162C431.914 131.708 432.835 130.687 433.962 130.781C435.089 130.874 435.841 132.016 436.249 133.163C437.532 136.905 436.179 141.435 437.959 144.922C439.011 146.97 440.96 148.253 442.252 150.134C443.092 151.35 443.634 152.787 443.825 154.304C444.168 156.963 443.412 159.647 443.487 162.332C443.642 168.065 447.784 173.054 452.725 174.68C454.214 175.17 455.839 175.431 457.042 176.525C458.39 177.75 458.92 179.731 459.691 181.451C462.236 187.013 468.422 190.182 473.889 188.717L472.799 187.351C468.06 187.43 463.265 184.438 461.1 179.705Z" fill="black"/>
<path opacity="0.1" d="M428.721 155.915C428.106 156.958 426.344 162.295 424.874 166.955C423.498 166.361 422.249 162.571 422.249 162.571L429.585 150.989C430.336 152.136 429.843 154.039 428.721 155.915Z" fill="black"/>
<path d="M429.003 155.602C428.387 156.645 426.626 161.982 425.156 166.642C423.78 166.053 422.531 162.259 422.531 162.259L429.867 150.682C430.618 151.823 430.125 153.731 429.003 155.602Z" fill="#DCE7FF"/>
<path d="M386.347 208.853L382.28 194.618C382.232 194.451 382.214 194.275 382.227 194.101C382.24 193.927 382.284 193.757 382.357 193.601C382.429 193.446 382.529 193.308 382.649 193.195C382.77 193.082 382.909 192.997 383.06 192.944C383.362 192.839 383.69 192.872 383.972 193.034C384.253 193.196 384.466 193.475 384.563 193.81L388.63 208.029L388.226 211.006L386.347 208.853Z" fill="#BE8B87"/>
<path opacity="0.1" d="M382.665 193.367C382.969 193.26 383.297 193.291 383.58 193.454C383.863 193.616 384.076 193.896 384.173 194.232L388.24 208.451L387.935 210.682L388.231 211.026L388.635 208.05L384.544 193.831C384.447 193.495 384.234 193.217 383.953 193.055C383.671 192.892 383.344 192.86 383.041 192.965C382.786 193.057 382.566 193.24 382.416 193.486C382.496 193.439 382.579 193.399 382.665 193.367Z" fill="white"/>
<path d="M386.347 208.853L388.63 208.05L388.297 210.49L388.226 211.026L387.559 210.255L386.347 208.853Z" fill="#EFC8C4"/>
<path d="M387.559 210.255C387.599 210.199 387.648 210.153 387.705 210.119C387.738 210.096 387.776 210.084 387.815 210.084C387.854 210.084 387.892 210.096 387.925 210.119C387.957 210.162 387.984 210.21 388.005 210.26C388.036 210.318 388.079 210.367 388.129 210.404C388.179 210.441 388.237 210.465 388.296 210.474L388.226 210.995L387.559 210.255Z" fill="#727A9C"/>
<path d="M382.257 199.674C382.257 199.674 390.415 199.622 388.494 203.474C386.573 207.326 383.572 207.789 383.572 207.789L382.257 199.674Z" fill="#FFB0B1"/>
<path d="M331.519 26.8025H331.166C317.152 26.8025 304.757 35.0329 297.628 47.178C290.498 35.0329 278.104 26.8025 264.089 26.8025H263.737C253.219 26.9137 243.166 31.6271 235.762 39.9184C228.357 48.2097 224.201 59.4089 224.195 71.0823C224.195 85.5781 229.916 106.147 241.07 123.071C262.323 155.321 297.628 183.536 297.628 183.536C297.628 183.536 332.932 155.326 354.18 123.071C365.339 106.147 371.055 85.5781 371.055 71.0823C371.05 59.4098 366.894 48.2114 359.491 39.9203C352.088 31.6291 342.036 26.9151 331.519 26.8025ZM326.479 125.552C324.883 125.546 323.326 125.004 322.013 123.997C320.699 122.99 319.691 121.567 319.12 119.913H310.741C310.189 119.909 309.652 119.714 309.205 119.355C308.758 118.996 308.423 118.491 308.247 117.911L305.673 109.305L297.529 140.888C297.37 141.496 297.038 142.03 296.583 142.411C296.127 142.791 295.572 142.998 295.002 142.999H294.838C294.243 142.967 293.676 142.709 293.231 142.269C292.787 141.829 292.492 141.233 292.396 140.58L284.003 84.5565L277.869 117.708C277.728 118.338 277.401 118.897 276.941 119.296C276.48 119.696 275.912 119.913 275.328 119.913H263.525C263.171 119.929 262.818 119.866 262.487 119.727C262.156 119.589 261.853 119.377 261.597 119.105C261.342 118.833 261.138 118.506 260.999 118.145C260.86 117.783 260.789 117.394 260.789 117.001C260.789 116.608 260.86 116.219 260.999 115.858C261.138 115.497 261.342 115.17 261.597 114.898C261.853 114.626 262.156 114.414 262.487 114.275C262.818 114.137 263.171 114.074 263.525 114.09H273.261L281.95 69.5186C282.093 68.8596 282.437 68.276 282.925 67.8677C283.412 67.4594 284.012 67.2516 284.622 67.2799C285.232 67.3083 285.815 67.5709 286.27 68.023C286.725 68.475 287.024 69.0884 287.116 69.7583L295.688 126.908L302.986 98.651C303.138 98.0559 303.46 97.5313 303.902 97.1555C304.345 96.7797 304.886 96.5729 305.443 96.566H305.495C306.047 96.5662 306.584 96.7598 307.031 97.1192C307.478 97.4787 307.812 97.9855 307.984 98.5676L312.638 114.106H319.016C319.47 112.577 320.295 111.217 321.401 110.175C322.507 109.134 323.851 108.452 325.284 108.205C326.717 107.958 328.184 108.155 329.523 108.774C330.862 109.394 332.02 110.412 332.87 111.716C333.721 113.02 334.23 114.559 334.341 116.164C334.453 117.769 334.163 119.377 333.503 120.811C332.844 122.244 331.84 123.448 330.603 124.288C329.366 125.129 327.944 125.573 326.493 125.573L326.479 125.552Z" fill="#5A98F2"/>
</g>
<defs>
<linearGradient id="paint0_linear_55152_1384" x1="167.356" y1="403.898" x2="167.356" y2="83.1544" gradientUnits="userSpaceOnUse">
<stop stop-color="#808080" stop-opacity="0.25"/>
<stop offset="0.54" stop-color="#808080" stop-opacity="0.12"/>
<stop offset="1" stop-color="#808080" stop-opacity="0.1"/>
</linearGradient>
<linearGradient id="paint1_linear_55152_1384" x1="419.614" y1="399.843" x2="419.614" y2="106.902" gradientUnits="userSpaceOnUse">
<stop stop-color="#808080" stop-opacity="0.25"/>
<stop offset="0.54" stop-color="#808080" stop-opacity="0.12"/>
<stop offset="1" stop-color="#808080" stop-opacity="0.1"/>
</linearGradient>
<clipPath id="clip0_55152_1384">
<rect width="519" height="408" fill="white"/>
</clipPath>
</defs>
</svg>
